<?xml version="1.0" standalone="yes"?>

<svg version="1.1" viewBox="0.0 0.0 506.3070866141732 160.8766404199475" fill="none" stroke="none" stroke-linecap="square" stroke-miterlimit="10" xmlns="http://www.w3.org/2000/svg" xmlns:xlink="http://www.w3.org/1999/xlink"><clipPath id="p.0"><path d="m0 0l506.3071 0l0 160.87665l-506.3071 0l0 -160.87665z" clip-rule="nonzero"></path></clipPath><g clip-path="url(#p.0)"><path fill="#000000" fill-opacity="0.0" d="m0 0l506.3071 0l0 160.87665l-506.3071 0z" fill-rule="evenodd"></path><path fill="#cfe2f3" d="m56.46194 36.323063l0 0c0 -6.314436 5.118862 -11.4333 11.4333 -11.4333l143.46411 0c3.0323029 0 5.9404144 1.2045765 8.084564 3.3487377c2.144165 2.1441593 3.3487396 5.0522633 3.3487396 8.084562l0 45.731823c0 6.314438 -5.118866 11.433304 -11.433304 11.433304l-143.46411 0c-6.314438 0 -11.4333 -5.118866 -11.4333 -11.433304z" fill-rule="evenodd"></path><path stroke="#000000" stroke-width="1.0" stroke-linejoin="round" stroke-linecap="butt" d="m56.46194 36.323063l0 0c0 -6.314436 5.118862 -11.4333 11.4333 -11.4333l143.46411 0c3.0323029 0 5.9404144 1.2045765 8.084564 3.3487377c2.144165 2.1441593 3.3487396 5.0522633 3.3487396 8.084562l0 45.731823c0 6.314438 -5.118866 11.433304 -11.433304 11.433304l-143.46411 0c-6.314438 0 -11.4333 -5.118866 -11.4333 -11.433304z" fill-rule="evenodd"></path><path fill="#000000" d="m74.831665 66.10898l0 -13.59375l9.171875 0l0 1.59375l-7.375 0l0 4.21875l6.375 0l0 1.609375l-6.375 0l0 6.171875l-1.796875 0zm11.052231 0l0 -13.59375l1.671875 0l0 13.59375l-1.671875 0zm3.5510712 -4.921875q0 -2.734375 1.53125 -4.0625q1.265625 -1.09375 3.09375 -1.09375q2.03125 0 3.3125 1.34375q1.296875 1.328125 1.296875 3.671875q0 1.90625 -0.578125 3.0q-0.5625 1.078125 -1.65625 1.6875q-1.078125 0.59375 -2.375 0.59375q-2.0625 0 -3.34375 -1.328125q-1.28125 -1.328125 -1.28125 -3.8125zm1.71875 0q0 1.890625 0.828125 2.828125q0.828125 0.9375 2.078125 0.9375q1.25 0 2.0625 -0.9375q0.828125 -0.953125 0.828125 -2.890625q0 -1.828125 -0.828125 -2.765625q-0.828125 -0.9375 -2.0625 -0.9375q-1.25 0 -2.078125 0.9375q-0.828125 0.9375 -0.828125 2.828125zm11.110092 4.921875l-3.015625 -9.859375l1.71875 0l1.5625 5.6875l0.59375 2.125q0.03125 -0.15625 0.5 -2.03125l1.578125 -5.78125l1.71875 0l1.46875 5.71875l0.484375 1.890625l0.578125 -1.90625l1.6875 -5.703125l1.625 0l-3.078125 9.859375l-1.734375 0l-1.578125 -5.90625l-0.375 -1.671875l-2.0 7.578125l-1.734375 0zm11.441696 -5.953125l0 -1.546875l9.0 -3.8125l0 1.65625l-7.140625 2.9375l7.140625 2.96875l0 1.65625l-9.0 -3.859375zm9.8168335 5.953125l5.234375 -13.59375l1.9375 0l5.5625 13.59375l-2.046875 0l-1.59375 -4.125l-5.6875 0l-1.484375 4.125l-1.921875 0zm3.921875 -5.578125l4.609375 0l-1.40625 -3.78125q-0.65625 -1.703125 -0.96875 -2.8125q-0.265625 1.3125 -0.734375 2.59375l-1.5 4.0zm10.240448 5.578125l0 -1.90625l1.90625 0l0 1.90625q0 1.046875 -0.375 1.6875q-0.375 0.65625 -1.171875 1.0l-0.46875 -0.71875q0.53125 -0.21875 0.78125 -0.671875q0.25 -0.453125 0.28125 -1.296875l-0.953125 0zm10.069733 0l0 -13.59375l5.109375 0q1.546875 0 2.484375 0.40625q0.953125 0.40625 1.484375 1.265625q0.53125 0.859375 0.53125 1.796875q0 0.875 -0.46875 1.65625q-0.46875 0.765625 -1.4375 1.234375q1.234375 0.359375 1.890625 1.234375q0.671875 0.875 0.671875 2.0625q0 0.953125 -0.40625 1.78125q-0.390625 0.8125 -0.984375 1.265625q-0.59375 0.4375 -1.5 0.671875q-0.890625 0.21875 -2.1875 0.21875l-5.1875 0zm1.796875 -7.890625l2.9375 0q1.203125 0 1.71875 -0.15625q0.6875 -0.203125 1.03125 -0.671875q0.359375 -0.46875 0.359375 -1.1875q0 -0.671875 -0.328125 -1.1875q-0.328125 -0.515625 -0.9375 -0.703125q-0.59375 -0.203125 -2.0625 -0.203125l-2.71875 0l0 4.109375zm0 6.28125l3.390625 0q0.875 0 1.21875 -0.0625q0.625 -0.109375 1.046875 -0.359375q0.421875 -0.265625 0.6875 -0.765625q0.265625 -0.5 0.265625 -1.140625q0 -0.765625 -0.390625 -1.328125q-0.390625 -0.5625 -1.078125 -0.78125q-0.6875 -0.234375 -1.984375 -0.234375l-3.15625 0l0 4.671875zm10.943573 1.609375l0 -1.90625l1.90625 0l0 1.90625q0 1.046875 -0.375 1.6875q-0.375 0.65625 -1.171875 1.0l-0.46875 -0.71875q0.53125 -0.21875 0.78125 -0.671875q0.25 -0.453125 0.28125 -1.296875l-0.953125 0zm10.085358 0l0 -13.59375l2.71875 0l3.21875 9.625q0.4375 1.34375 0.640625 2.015625q0.234375 -0.75 0.734375 -2.1875l3.25 -9.453125l2.421875 0l0 13.59375l-1.734375 0l0 -11.390625l-3.953125 11.390625l-1.625 0l-3.9375 -11.578125l0 11.578125l-1.734375 0zm21.212677 0l-1.671875 0l0 -10.640625q-0.59375 0.578125 -1.578125 1.15625q-0.984375 0.5625 -1.765625 0.859375l0 -1.625q1.40625 -0.65625 2.453125 -1.59375q1.046875 -0.9375 1.484375 -1.8125l1.078125 0l0 13.65625zm13.344467 -5.953125l-9.0 3.859375l0 -1.65625l7.125 -2.96875l-7.125 -2.9375l0 -1.65625l9.0 3.8125l0 1.546875z" fill-rule="nonzero"></path><path fill="#cfe2f3" d="m283.11548 36.323063l0 0c0 -6.314436 5.118866 -11.4333 11.433319 -11.4333l143.46411 0c3.0322876 0 5.940399 1.2045765 8.084564 3.3487377c2.1441345 2.1441593 3.3487244 5.0522633 3.3487244 8.084562l0 45.731823c0 6.314438 -5.118866 11.433304 -11.433289 11.433304l-143.46411 0c-6.314453 0 -11.433319 -5.118866 -11.433319 -11.433304z" fill-rule="evenodd"></path><path stroke="#000000" stroke-width="1.0" stroke-linejoin="round" stroke-linecap="butt" d="m283.11548 36.323063l0 0c0 -6.314436 5.118866 -11.4333 11.433319 -11.4333l143.46411 0c3.0322876 0 5.940399 1.2045765 8.084564 3.3487377c2.1441345 2.1441593 3.3487244 5.0522633 3.3487244 8.084562l0 45.731823c0 6.314438 -5.118866 11.433304 -11.433289 11.433304l-143.46411 0c-6.314453 0 -11.433319 -5.118866 -11.433319 -11.433304z" fill-rule="evenodd"></path><path fill="#000000" d="m300.97052 66.10898l0 -13.59375l9.171875 0l0 1.59375l-7.375 0l0 4.21875l6.375 0l0 1.609375l-6.375 0l0 6.171875l-1.796875 0zm11.052246 0l0 -13.59375l1.671875 0l0 13.59375l-1.671875 0zm3.551056 -4.921875q0 -2.734375 1.53125 -4.0625q1.265625 -1.09375 3.09375 -1.09375q2.03125 0 3.3125 1.34375q1.296875 1.328125 1.296875 3.671875q0 1.90625 -0.578125 3.0q-0.5625 1.078125 -1.65625 1.6875q-1.078125 0.59375 -2.375 0.59375q-2.0625 0 -3.34375 -1.328125q-1.28125 -1.328125 -1.28125 -3.8125zm1.71875 0q0 1.890625 0.828125 2.828125q0.828125 0.9375 2.078125 0.9375q1.25 0 2.0625 -0.9375q0.828125 -0.953125 0.828125 -2.890625q0 -1.828125 -0.828125 -2.765625q-0.828125 -0.9375 -2.0625 -0.9375q-1.25 0 -2.078125 0.9375q-0.828125 0.9375 -0.828125 2.828125zm11.110107 4.921875l-3.015625 -9.859375l1.71875 0l1.5625 5.6875l0.59375 2.125q0.03125 -0.15625 0.5 -2.03125l1.578125 -5.78125l1.71875 0l1.46875 5.71875l0.484375 1.890625l0.578125 -1.90625l1.6875 -5.703125l1.625 0l-3.078125 9.859375l-1.734375 0l-1.578125 -5.90625l-0.375 -1.671875l-2.0 7.578125l-1.734375 0zm11.441681 -5.953125l0 -1.546875l9.0 -3.8125l0 1.65625l-7.140625 2.9375l7.140625 2.96875l0 1.65625l-9.0 -3.859375zm11.2387085 5.953125l0 -13.59375l5.109375 0q1.546875 0 2.484375 0.40625q0.953125 0.40625 1.484375 1.265625q0.53125 0.859375 0.53125 1.796875q0 0.875 -0.46875 1.65625q-0.46875 0.765625 -1.4375 1.234375q1.234375 0.359375 1.890625 1.234375q0.671875 0.875 0.671875 2.0625q0 0.953125 -0.40625 1.78125q-0.390625 0.8125 -0.984375 1.265625q-0.59375 0.4375 -1.5 0.671875q-0.890625 0.21875 -2.1875 0.21875l-5.1875 0zm1.796875 -7.890625l2.9375 0q1.203125 0 1.71875 -0.15625q0.6875 -0.203125 1.03125 -0.671875q0.359375 -0.46875 0.359375 -1.1875q0 -0.671875 -0.328125 -1.1875q-0.328125 -0.515625 -0.9375 -0.703125q-0.59375 -0.203125 -2.0625 -0.203125l-2.71875 0l0 4.109375zm0 6.28125l3.390625 0q0.875 0 1.21875 -0.0625q0.625 -0.109375 1.046875 -0.359375q0.421875 -0.265625 0.6875 -0.765625q0.265625 -0.5 0.265625 -1.140625q0 -0.765625 -0.390625 -1.328125q-0.390625 -0.5625 -1.078125 -0.78125q-0.6875 -0.234375 -1.984375 -0.234375l-3.15625 0l0 4.671875zm10.943573 1.609375l0 -1.90625l1.90625 0l0 1.90625q0 1.046875 -0.375 1.6875q-0.375 0.65625 -1.171875 1.0l-0.46875 -0.71875q0.53125 -0.21875 0.78125 -0.671875q0.25 -0.453125 0.28125 -1.296875l-0.953125 0zm19.850983 -4.765625l1.796875 0.453125q-0.5625 2.21875 -2.03125 3.390625q-1.46875 1.15625 -3.59375 1.15625q-2.203125 0 -3.578125 -0.890625q-1.375 -0.90625 -2.09375 -2.59375q-0.71875 -1.703125 -0.71875 -3.65625q0 -2.125 0.796875 -3.703125q0.8125 -1.578125 2.3125 -2.390625q1.5 -0.828125 3.296875 -0.828125q2.046875 0 3.4375 1.046875q1.390625 1.03125 1.9375 2.90625l-1.765625 0.421875q-0.46875 -1.484375 -1.375 -2.15625q-0.90625 -0.6875 -2.265625 -0.6875q-1.5625 0 -2.625 0.75q-1.046875 0.75 -1.484375 2.03125q-0.421875 1.265625 -0.421875 2.609375q0 1.734375 0.5 3.03125q0.515625 1.28125 1.578125 1.921875q1.078125 0.640625 2.3125 0.640625q1.515625 0 2.5625 -0.859375q1.046875 -0.875 1.421875 -2.59375zm3.9885864 4.765625l0 -1.90625l1.90625 0l0 1.90625q0 1.046875 -0.375 1.6875q-0.375 0.65625 -1.171875 1.0l-0.46875 -0.71875q0.53125 -0.21875 0.78125 -0.671875q0.25 -0.453125 0.28125 -1.296875l-0.953125 0zm10.085358 0l0 -13.59375l2.71875 0l3.21875 9.625q0.4375 1.34375 0.640625 2.015625q0.234375 -0.75 0.734375 -2.1875l3.25 -9.453125l2.421875 0l0 13.59375l-1.734375 0l0 -11.390625l-3.953125 11.390625l-1.625 0l-3.9375 -11.578125l0 11.578125l-1.734375 0zm23.697021 -1.609375l0 1.609375l-8.9843445 0q-0.015625 -0.609375 0.1875 -1.15625q0.34375 -0.921875 1.09375 -1.8125q0.7655945 -0.890625 2.1874695 -2.0625q2.21875 -1.8125 3.0 -2.875q0.78125 -1.0625 0.78125 -2.015625q0 -0.984375 -0.71875 -1.671875q-0.703125 -0.6875 -1.84375 -0.6875q-1.203125 0 -1.9375 0.734375q-0.71875 0.71875 -0.71875 2.0l-1.7187195 -0.171875q0.171875 -1.921875 1.328125 -2.921875q1.1562195 -1.015625 3.0937195 -1.015625q1.953125 0 3.09375 1.09375q1.140625 1.078125 1.140625 2.6875q0 0.8125 -0.34375 1.609375q-0.328125 0.78125 -1.109375 1.65625q-0.765625 0.859375 -2.5625 2.390625q-1.5 1.265625 -1.9375 1.71875q-0.421875 0.4375 -0.703125 0.890625l6.671875 0zm10.860107 -4.34375l-9.0 3.859375l0 -1.65625l7.125 -2.96875l-7.125 -2.9375l0 -1.65625l9.0 3.8125l0 1.546875z" fill-rule="nonzero"></path><path fill="#000000" fill-opacity="0.0" d="m222.79265 59.188976l60.314957 0" fill-rule="evenodd"></path><path stroke="#000000" stroke-width="1.0" stroke-linejoin="round" stroke-linecap="butt" d="m222.79265 59.188976l54.314957 0" fill-rule="evenodd"></path><path fill="#000000" stroke="#000000" stroke-width="1.0" stroke-linecap="butt" d="m277.1076 60.84071l4.5381165 -1.6517334l-4.5381165 -1.6517334z" fill-rule="evenodd"></path><path fill="#000000" fill-opacity="0.0" d="m56.46194 59.188976l-46.14173 0" fill-rule="evenodd"></path><path stroke="#000000" stroke-width="1.0" stroke-linejoin="round" stroke-linecap="butt" d="m50.46194 59.188976l-40.14173 0" fill-rule="evenodd"></path><path fill="#000000" stroke="#000000" stroke-width="1.0" stroke-linecap="butt" d="m50.46194 60.84071l4.5380974 -1.6517334l-4.5380974 -1.6517334z" fill-rule="evenodd"></path><path fill="#000000" fill-opacity="0.0" d="m139.6273 93.48819l0 29.133858" fill-rule="evenodd"></path><path stroke="#000000" stroke-width="1.0" stroke-linejoin="round" stroke-linecap="butt" d="m139.6273 93.48819l0 23.133858" fill-rule="evenodd"></path><path fill="#000000" stroke="#000000" stroke-width="1.0" stroke-linecap="butt" d="m137.97557 116.62205l1.6517334 4.538101l1.6517181 -4.538101z" fill-rule="evenodd"></path><path fill="#000000" fill-opacity="0.0" d="m366.28085 93.48819l0 29.133858" fill-rule="evenodd"></path><path stroke="#000000" stroke-width="1.0" stroke-linejoin="round" stroke-linecap="butt" d="m366.28085 93.48819l0 23.133858" fill-rule="evenodd"></path><path fill="#000000" stroke="#000000" stroke-width="1.0" stroke-linecap="butt" d="m364.62912 116.62205l1.6517334 4.538101l1.6517334 -4.538101z" fill-rule="evenodd"></path><path fill="#000000" fill-opacity="0.0" d="m495.58792 59.188976l-46.141724 0" fill-rule="evenodd"></path><path stroke="#000000" stroke-width="1.0" stroke-linejoin="round" stroke-linecap="butt" d="m489.58792 59.188976l-40.141724 0" fill-rule="evenodd"></path><path fill="#000000" stroke="#000000" stroke-width="1.0" stroke-linecap="butt" d="m489.58792 60.84071l4.5381165 -1.6517334l-4.5381165 -1.6517334z" fill-rule="evenodd"></path><path fill="#000000" fill-opacity="0.0" d="m18.509186 30.055119l29.763779 0l0 29.133858l-29.763779 0z" fill-rule="evenodd"></path><path fill="#000000" d="m27.138039 51.542046l5.234375 -13.59375l1.9375 0l5.5625 13.59375l-2.046875 0l-1.59375 -4.125l-5.6875 0l-1.484375 4.125l-1.921875 0zm3.921875 -5.578125l4.609375 0l-1.40625 -3.78125q-0.65625 -1.703125 -0.96875 -2.8125q-0.265625 1.3125 -0.734375 2.59375l-1.5 4.0z" fill-rule="nonzero"></path><path fill="#000000" fill-opacity="0.0" d="m238.07086 30.055119l29.763794 0l0 29.133858l-29.763794 0z" fill-rule="evenodd"></path><path fill="#000000" d="m248.1216 51.542046l0 -13.59375l5.109375 0q1.546875 0 2.484375 0.40625q0.95310974 0.40625 1.4843597 1.265625q0.53125 0.859375 0.53125 1.796875q0 0.875 -0.46875 1.65625q-0.46875 0.765625 -1.4374847 1.234375q1.2343597 0.359375 1.8906097 1.234375q0.671875 0.875 0.671875 2.0625q0 0.953125 -0.40625 1.78125q-0.390625 0.8125 -0.984375 1.265625q-0.59375 0.4375 -1.4999847 0.671875q-0.890625 0.21875 -2.1875 0.21875l-5.1875 0zm1.796875 -7.890625l2.9375 0q1.203125 0 1.71875 -0.15625q0.6875 -0.203125 1.03125 -0.671875q0.359375 -0.46875 0.359375 -1.1875q0 -0.671875 -0.328125 -1.1875q-0.328125 -0.515625 -0.9375 -0.703125q-0.59375 -0.203125 -2.0625 -0.203125l-2.71875 0l0 4.109375zm0 6.28125l3.390625 0q0.875 0 1.21875 -0.0625q0.625 -0.109375 1.046875 -0.359375q0.421875 -0.265625 0.68748474 -0.765625q0.265625 -0.5 0.265625 -1.140625q0 -0.765625 -0.390625 -1.328125q-0.39060974 -0.5625 -1.0781097 -0.78125q-0.6875 -0.234375 -1.984375 -0.234375l-3.15625 0l0 4.671875z" fill-rule="nonzero"></path><path fill="#000000" fill-opacity="0.0" d="m453.80054 30.055119l29.763763 0l0 29.133858l-29.763763 0z" fill-rule="evenodd"></path><path fill="#000000" d="m473.11783 46.77642l1.796875 0.453125q-0.5625 2.21875 -2.03125 3.390625q-1.46875 1.15625 -3.59375 1.15625q-2.203125 0 -3.578125 -0.890625q-1.375 -0.90625 -2.09375 -2.59375q-0.71875 -1.703125 -0.71875 -3.65625q0 -2.125 0.796875 -3.703125q0.8125 -1.578125 2.3125 -2.390625q1.5 -0.828125 3.296875 -0.828125q2.046875 0 3.4375 1.046875q1.390625 1.03125 1.9375 2.90625l-1.765625 0.421875q-0.46875 -1.484375 -1.375 -2.15625q-0.90625 -0.6875 -2.265625 -0.6875q-1.5625 0 -2.625 0.75q-1.046875 0.75 -1.484375 2.03125q-0.421875 1.265625 -0.421875 2.609375q0 1.734375 0.5 3.03125q0.515625 1.28125 1.578125 1.921875q1.078125 0.640625 2.3125 0.640625q1.515625 0 2.5625 -0.859375q1.046875 -0.875 1.421875 -2.59375z" fill-rule="nonzero"></path><path fill="#000000" fill-opacity="0.0" d="m116.55643 122.62205l46.14174 0l0 29.133858l-46.14174 0z" fill-rule="evenodd"></path><path fill="#000000" d="m128.07529 144.10898l0 -13.59375l2.71875 0l3.21875 9.625q0.4375 1.34375 0.640625 2.015625q0.234375 -0.75 0.734375 -2.1875l3.25 -9.453125l2.421875 0l0 13.59375l-1.734375 0l0 -11.390625l-3.953125 11.390625l-1.625 0l-3.9375 -11.578125l0 11.578125l-1.734375 0zm21.212677 0l-1.671875 0l0 -10.640625q-0.59375 0.578125 -1.578125 1.15625q-0.984375 0.5625 -1.765625 0.859375l0 -1.625q1.40625 -0.65625 2.453125 -1.59375q1.046875 -0.9375 1.484375 -1.8125l1.078125 0l0 13.65625z" fill-rule="nonzero"></path><path fill="#000000" fill-opacity="0.0" d="m343.20996 122.62205l46.141754 0l0 29.133858l-46.141754 0z" fill-rule="evenodd"></path><path fill="#000000" d="m354.72882 144.10898l0 -13.59375l2.71875 0l3.21875 9.625q0.4375 1.34375 0.640625 2.015625q0.234375 -0.75 0.734375 -2.1875l3.25 -9.453125l2.421875 0l0 13.59375l-1.734375 0l0 -11.390625l-3.953125 11.390625l-1.625 0l-3.9375 -11.578125l0 11.578125l-1.734375 0zm23.697052 -1.609375l0 1.609375l-8.984375 0q-0.015625 -0.609375 0.1875 -1.15625q0.34375 -0.921875 1.09375 -1.8125q0.765625 -0.890625 2.1875 -2.0625q2.21875 -1.8125 3.0 -2.875q0.78125 -1.0625 0.78125 -2.015625q0 -0.984375 -0.71875 -1.671875q-0.703125 -0.6875 -1.84375 -0.6875q-1.203125 0 -1.9375 0.734375q-0.71875 0.71875 -0.71875 2.0l-1.71875 -0.171875q0.171875 -1.921875 1.328125 -2.921875q1.15625 -1.015625 3.09375 -1.015625q1.953125 0 3.09375 1.09375q1.140625 1.078125 1.140625 2.6875q0 0.8125 -0.34375 1.609375q-0.328125 0.78125 -1.109375 1.65625q-0.765625 0.859375 -2.5625 2.390625q-1.5 1.265625 -1.9375 1.71875q-0.421875 0.4375 -0.703125 0.890625l6.671875 0z" fill-rule="nonzero"></path></g></svg>

